PathFileType	4	(X/Y/Z)	Walk1_0-155.trc
DataRate	CameraRate	NumFrames	NumMarkers	Units	OrigDataRate	OrigDataStartFrame	OrigNumFrames
30	30	7	22	m	30	116	155
Frame#	Time	Hip			RHip			RKnee			RAnkle			RBigToe			RSmallToe			RHeel			LHip			LKnee			LAnkle			LBigToe			LSmallToe			LHeel			Neck			Head			Nose			RShoulder			RElbow			RWrist			LShoulder			LElbow			LWrist		
		X1	Y1	Z1	X2	Y2	Z2	X3	Y3	Z3	X4	Y4	Z4	X5	Y5	Z5	X6	Y6	Z6	X7	Y7	Z7	X8	Y8	Z8	X9	Y9	Z9	X10	Y10	Z10	X11	Y11	Z11	X12	Y12	Z12	X13	Y13	Z13	X14	Y14	Z14	X15	Y15	Z15	X16	Y16	Z16	X17	Y17	Z17	X18	Y18	Z18	X19	Y19	Z19	X20	Y20	Z20	X21	Y21	Z21	X22	Y22	Z22
117	3.9	0.9978660776608209	0.9072224741615454	0.4104896315943472	0.977227950896034	0.8826150427640858	0.5254091180236075	0.9170354588102406	0.5261215395076209	0.48751402319402687	0.8593586428854358	0.11371749763512681	0.4457513240062165	1.0484800752187562	0.04857644008610017	0.4709390778330155	0.9926353609675252	0.037108543651961964	0.5219123241048339	0.8131759427538139	0.03887036376103959	0.4233673002770866	1.0170679733628798	0.886522492427498	0.29951024400988163	1.2346662503347756	0.5820713039498351	0.32767676074999397	1.0359498509913507	0.2063751137767464	0.3264400918291616	1.188289143798003	0.08144511286572503	0.30220869660688754	1.1533467049234372	0.07965752739679838	0.2523024537837292	0.9867608307921141	0.1406186845088097	0.3385947536841057	0.9104356623647869	1.5943556588324794	0.39316960088308794	0.9789402278919569	1.8478977799132188	0.4184820591009681	1.1031810556838897	1.6759343846183012	0.4101664050897414	0.8894223152557463	1.4684256139292038	0.5750487574756487	1.0044002823458313	1.1820586573378522	0.6513888264190185	1.2838184376858461	0.9663727583837471	0.6341683888327219	0.9280667969025086	1.4812324387239646	0.23632269613798232	0.8839472410248943	1.1695628210878566	0.17772540337130296	0.9069267755884635	0.9027681701881206	0.1367446105282011
118	3.933333333333333	1.034732934069047	0.9045317989739448	0.4104193090465593	1.0127146073589568	0.879435679476696	0.5239756814440087	0.9301780770036936	0.515477920199385	0.4823956051445659	0.855348244228734	0.11413164872725823	0.4413315319553007	1.0648862938553425	0.04647812296938358	0.470800595882146	1.0052988850426192	0.03587416345713181	0.5205834824636458	0.807276329400223	0.04152784362355454	0.4197682585811518	1.060052065428328	0.8843764799676176	0.30391658643954805	1.2691466691491675	0.570448804859296	0.3237798941883809	1.1524006248630687	0.15238657055976315	0.32628658325953824	1.3728680219500762	0.04863296011363973	0.34142456593607834	1.3405879309013111	0.044325413519684304	0.2953085522123999	1.1093140297056836	0.07972960766876684	0.3401701650914777	0.9531341520466856	1.5918081095892225	0.39584098062444806	1.027779176700572	1.844110331187578	0.41928453647305297	1.1378171067003677	1.671574609680212	0.4192909787828849	0.932255119154897	1.4675267103000351	0.5771124739164447	1.0574539583106721	1.182087406883574	0.6549855227909066	1.3076010115529317	0.9941811489736578	0.6746524345354423	0.9701713384744449	1.4752317633546042	0.24352469156178425	0.8886477257984114	1.1549084799585116	0.15711211420743862	0.9508869170142824	0.8923297266309879	0.11159819400041401
119	3.966666666666667	1.0772006862079844	0.8961254003155641	0.4085269583962228	1.0502144087214296	0.8763063501871353	0.5221312762692782	0.9457411814519588	0.5119506556519333	0.48146841045733707	0.8579466913394136	0.10845553090917984	0.44050629749994213	1.0567017499851494	0.0103453005111841	0.4863695150037832	1.0103804505099325	0.023143476411098513	0.5191678577354666	0.805342778609119	0.04989623355118649	0.41427354084393936	1.1030984051527861	0.8753823897920716	0.30531444953803133	1.3023779323853444	0.546382426131049	0.3284756500262946	1.2827030092764808	0.13065001412485094	0.31819590066781184	1.5077968894996625	0.06465720391998263	0.3175801238153564	1.4719623845760201	0.058397971691432245	0.2765616482094453	1.249570394060743	0.0573246740544144	0.3302677525643708	1.0007254304044193	1.5884810453213631	0.3986607090316999	1.0655654474003187	1.8363263319192955	0.41296040640758147	1.1877364085827324	1.6692472182095848	0.4155519855885756	0.9771638341059705	1.4649373867626347	0.5761272005858574	1.1111411932436575	1.1806636446254117	0.6595186541024767	1.3736234900550224	1.0033848533867906	0.6675767003604383	1.0186714788074205	1.469220633170198	0.24828687637178765	0.9411538563665104	1.1424805056619862	0.1635953023720907	0.9866874921865917	0.883003440739696	0.09955390918830323
120	4.0	1.117407382863803	0.8903629159836359	0.4055017283793092	1.0870153155043991	0.8666225982692594	0.5129913433372822	0.9737129491015187	0.508141047406897	0.4830704944150907	0.8616283499914313	0.11988199875705322	0.4452884676546928	1.0508907482092167	0.022058076744955586	0.4649350645665571	1.0219807969474617	0.023961919103159413	0.5199979751789221	0.8142718054703887	0.055812538144179136	0.4157854928762993	1.1424940984029153	0.864541166222462	0.30556099982408064	1.339387672329493	0.5231713261175057	0.331912921647237	1.394859757535624	0.14051163780197637	0.3113490163183685	1.6257076696415413	0.11988474885911284	0.2998542471348835	1.582325307126148	0.10362837489998752	0.257939476239684	1.3681201555263733	0.058744970646559945	0.3155861126259345	1.0433081393767103	1.5787030900393288	0.3956512606924456	1.1082611343565345	1.8293515698791567	0.4116094825494278	1.2412384205379687	1.6569264655904818	0.40366652369675154	1.022770538123816	1.458773389173724	0.5737419887540179	1.1602683482765535	1.1785889924531532	0.6560560268988082	1.4357257279740132	1.014143119885184	0.6566091422536148	1.0600292328169678	1.4599162845367437	0.24515835284533055	0.9955558346968283	1.1499681620522497	0.14837947173467478	0.9952528511331838	0.8893094141486165	0.12089069048786921
121	4.033333333333333	1.1627490737302653	0.8782059994134507	0.40550826187702793	1.1374498803090234	0.8502620954062441	0.5126440340680242	0.9994908422916249	0.5064924558689469	0.48263820507884403	0.8787472392899075	0.12425484816038676	0.4548526787291613	1.0732548416835852	0.03298820481625392	0.47048676745776286	1.019835374966931	0.03242278688272056	0.5190687759585201	0.8156413054420539	0.059935491723795385	0.4224665289516837	1.1855298465152804	0.8461631239528582	0.305144957822409	1.3808284792721013	0.5033827193844751	0.3357267123403845	1.485176905472131	0.1314015274691368	0.31597334989363707	1.7073847686752008	0.1394992945311625	0.2951486698452997	1.6640703407732913	0.11579319672447172	0.2506169389364339	1.4715949696108699	0.0486021864302054	0.3180224108388847	1.0839900386367047	1.5715515677456047	0.39102787698093	1.1555379695043206	1.821004281496189	0.4163680354039598	1.2866773244948801	1.6505043547109202	0.40124281576134185	1.068882173433266	1.4494718934838657	0.572465844884779	1.2109283517576148	1.1709894594120642	0.6532532759992421	1.488836180372983	1.0186989682145777	0.648358315538545	1.1028391039506136	1.447374553161354	0.24308589348330303	1.0471043570421092	1.1300567540987698	0.181384042293811	1.0324959371409916	0.8828431953541988	0.118553495606303
122	4.066666666666666	1.2091900205816382	0.8726344887980497	0.40896056431529443	1.1825547658961004	0.8449249892636578	0.5132706723226013	1.0375832680362478	0.5024166760844201	0.48305709817905307	0.8656266216249714	0.13177423888486045	0.44411991460878214	1.0783969095296753	0.02882613014144141	0.46720841486464143	1.027796364609728	0.02606812437497237	0.5102057089642633	0.8196657144447949	0.06600221683754572	0.4422462855567292	1.227276773935417	0.8401794484347404	0.3124523185710016	1.4247178748429492	0.4983930822604816	0.3454309573327742	1.5435573117906727	0.122650040802118	0.3162127958404446	1.760036109374826	0.13998403149184172	0.3012448370326758	1.7249448407600114	0.11849809372279779	0.2548486895967139	1.5347936000772417	0.03946160337354189	0.30896570556596337	1.130207660313443	1.5611770447191329	0.38709005926642703	1.1876494366699049	1.8077917136144805	0.4051315065639313	1.3371578048864678	1.6575337560008632	0.37492421344300275	1.1139621410879328	1.438224702937157	0.56795410751204	1.2541127440526838	1.1627923947603034	0.6524493898578749	1.534830420660787	1.0184055299376575	0.6439567292012225	1.15528437341409	1.4442172328619953	0.24004623359429364	1.098542955119952	1.1227010745744996	0.18543578325857052	1.0697547123885691	0.8711541537037208	0.11463929610075947
123	4.1	1.260796109545302	0.859944106959257	0.4082765069093764	1.233480573333332	0.8388458266817329	0.5136697195911472	1.0798676364855406	0.4978537867677392	0.48271226631201436	0.8759959787018884	0.14008931454448859	0.44741384952757757	1.0743813510684748	0.025311614630317582	0.46742376377603057	1.0231318441999957	0.023363230839130916	0.5045116310406873	0.8034701733552657	0.08040418024125078	0.42832864082099914	1.2819076376323286	0.8313350305113578	0.3086843434744699	1.4771442043768201	0.4970753957749091	0.34758603736773735	1.5762151613115034	0.10126572623377816	0.3226670328913105	1.79887278307503	0.11215477882981746	0.322078378664985	1.7616025714214834	0.09012953310416917	0.2675201094440354	1.5877968120263017	0.008374174190257063	0.32276801916104286	1.1729250338662265	1.55140606863853	0.3804440167420592	1.2388477589363314	1.8025689694392943	0.41278995327762685	1.3817697305551928	1.6518109854218055	0.3686206404360291	1.1590983888680004	1.4340897078249313	0.5571623633706719	1.2914864393834173	1.1526286476490462	0.6433003416866981	1.574620711613812	1.0107183925443037	0.6432091277691193	1.2067695458936478	1.4370864024540178	0.2435685657917288	1.1478502651141522	1.1119704181001284	0.1807112746803247	1.1500318196776504	0.8449100022861604	0.08070085598330205
